<?xml version="1.0" encoding="UTF-8"?><svg xmlns="http://www.w3.org/2000/svg" xmlns:xlink="http://www.w3.org/1999/xlink" height="74.6" preserveAspectRatio="xMidYMid meet" version="1.0" viewBox="-0.5 -0.0 94.2 74.6" width="94.2" zoomAndPan="magnify"><g id="change1_1"><path d="m93.2 34.2l-1.1-3.1c-0.6-1.7-2.5-3.1-4.2-3.1h-3.9c-2.9-8.1-6.4-17.9-7.5-20.2-1.6-3.6-6.7-5.2-9.5-6 0 0-4.7-1.8-20.4-1.8s-20.3 1.8-20.3 1.8c-3.3 1.1-7.9 2.7-9.7 6.1-0.9 1.7-4.5 11.7-7.4 20.1h-3.8c-1.7 0-3.6 1.4-4.2 3.1l-1.1 3.1c-0.6 1.7 0.3 3.1 2 3.1h3.9c-0.5 1.4-0.8 2.2-0.8 2.2-0.3 0.5-0.5 2.8-0.5 3.5v28.3c0 1.8 1.5 3.3 3.3 3.3h12c1.8 0 3.3-1.5 3.3-3.3v-6h46.7v6c0 1.8 1.5 3.3 3.3 3.3h12.1c1.8 0 3.3-1.5 3.3-3.3v-28.3c0-0.6-0.2-3-0.5-3.5 0 0-0.3-0.8-0.8-2.2h3.8c1.6 0 2.5-1.4 2-3.1zm-69.9 17.4l-4-2.7c-7.4-0.6-8.3 2-9.9-0.8v-3.4c0-3.3 1.9-3.4 4-3.4 2 0 6 1.7 8.7 2.9 2.9 1.3 5 0.2 6.1 4.5-0.1 2-1.2 2.9-4.9 2.9zm-7-22.3c2.5-10.2 6.7-17.3 7.3-19 0.4-1.2-0.6-3.4 23.1-3.4s22.4 3.2 22.5 3.3c1.1 2.3 5.5 9.8 7.8 19.1 0 0-8.9 1.2-29.2 1.2s-31.5-1.2-31.5-1.2zm48.9 19.4c4.7-5.8 3.2-3.2 6.1-4.5 2.6-1.2 6.7-2.9 8.7-2.9 2.1 0 4 0.1 4 3.4v3.4c-1.5 2.7-2.8 0.3-10.3 1l-3.7 2.4c-3.7 0.1-6.1-1.3-4.8-2.8z" fill="inherit"/></g></svg>