<?xml version="1.0" encoding="UTF-8"?><!DOCTYPE svg PUBLIC "-//W3C//DTD SVG 1.0//EN" "http://www.w3.org/TR/2001/REC-SVG-20010904/DTD/svg10.dtd" []><svg xmlns="http://www.w3.org/2000/svg" xmlns:xlink="http://www.w3.org/1999/xlink" data-name="Layer 2" height="53.1" preserveAspectRatio="xMidYMid meet" version="1.0" viewBox="2.4 5.2 58.6 53.1" width="58.6" zoomAndPan="magnify"><g id="change1_1"><path d="M60,50.81H57.92V46.65a1,1,0,0,0-1-1H36.45a1,1,0,0,0-1,1v4.16H33.37a1,1,0,0,0-1,1v4.54h-24a1,1,0,0,0,0,1.94H60a1,1,0,0,0,1-1V51.78A1,1,0,0,0,60,50.81Z"/></g><g id="change1_2"><path d="M10.13,43.57,28.22,30.29,31,34.07a2.36,2.36,0,0,0,.12,2.63l1.1,1.49a2.37,2.37,0,0,0,1.92,1,2.32,2.32,0,0,0,1.41-.47l10.59-7.78a2.37,2.37,0,0,0,.52-3.33l-1.1-1.49a2.37,2.37,0,0,0-2.47-.9L32.37,10.61A2.36,2.36,0,0,0,32.25,8L31.16,6.49A2.39,2.39,0,0,0,27.82,6L17.23,13.76a2.39,2.39,0,0,0-.51,3.33l1.09,1.49a2.4,2.4,0,0,0,1.93,1,1.77,1.77,0,0,0,.56-.08l2.78,3.8L5,36.56a4.53,4.53,0,0,0-1.19,6.27,4.24,4.24,0,0,0,3.46,1.7A4.84,4.84,0,0,0,10.13,43.57ZM44,27.24l1.1,1.49a.47.47,0,0,1-.1.64L34.41,37.15a.43.43,0,0,1-.27.08.46.46,0,0,1-.37-.18l-1.09-1.49a.45.45,0,0,1,.09-.62h0l0,0,0,0,10.34-7.61.13-.08,0,0a.44.44,0,0,1,.27-.09A.43.43,0,0,1,44,27.24ZM18.28,16a.44.44,0,0,1-.08-.34.43.43,0,0,1,.18-.29L29,7.54a.46.46,0,0,1,.63.09l1.09,1.49a.46.46,0,0,1-.05.6l-.08,0-.09.09L20.19,17.41a.65.65,0,0,0-.16.09l-.06.06a.47.47,0,0,1-.6-.12ZM5.35,41.69a2.6,2.6,0,0,1,.77-3.57l18.1-13.29,2.86,3.9L9,42A2.58,2.58,0,0,1,5.35,41.69Z"/></g></svg>